<svg width="15" height="22" viewBox="0 0 15 22" fill="none" xmlns="http://www.w3.org/2000/svg">
<path d="M4.5 14.5V5.5H6.5V14.5C6.5 14.6733 6.5606 14.9559 6.71191 15.166C6.82656 15.3251 7.02631 15.5 7.5 15.5C7.97369 15.5 8.17344 15.3251 8.28809 15.166C8.4394 14.9559 8.5 14.6733 8.5 14.5V5.5C8.5 4.99336 8.33999 4.21081 7.88867 3.58398C7.47406 3.00819 6.774 2.5 5.5 2.5C4.226 2.5 3.52594 3.00819 3.11133 3.58398C2.66001 4.21081 2.5 4.99336 2.5 5.5V14.5C2.5 15.34 2.7604 16.6225 3.51172 17.666C4.22635 18.6584 5.42613 19.5 7.5 19.5C9.57387 19.5 10.7737 18.6584 11.4883 17.666C12.2396 16.6225 12.5 15.34 12.5 14.5V5.5H14.5V14.5C14.5 15.66 14.1599 17.3775 13.1113 18.834C12.0259 20.3415 10.2259 21.5 7.5 21.5C4.77408 21.5 2.97407 20.3415 1.88867 18.834C0.840051 17.3775 0.5 15.66 0.5 14.5V5.5C0.5 4.67339 0.739765 3.45579 1.48828 2.41602C2.27368 1.32519 3.57408 0.5 5.5 0.5C7.42592 0.5 8.72632 1.32519 9.51172 2.41602C10.2602 3.45579 10.5 4.67339 10.5 5.5V14.5C10.5 14.9934 10.3598 15.7108 9.91113 16.334C9.42574 17.0081 8.62592 17.5 7.5 17.5C6.37408 17.5 5.57426 17.0081 5.08887 16.334C4.64019 15.7108 4.5 14.9934 4.5 14.5Z" fill="#EC3A7A"/>
</svg>
