<svg width="22" height="22" viewBox="0 0 22 22" fill="none" xmlns="http://www.w3.org/2000/svg">
<path fill-rule="evenodd" clip-rule="evenodd" d="M1.70712 0.292969L21.7071 20.293L20.2929 21.7072L0.292908 1.70718L1.70712 0.292969ZM8.50001 14.9143L1.70712 21.7072L0.292908 20.293L7.0858 13.5001L2.29291 8.70718L3.70712 7.29297L9.20712 12.793L14.7071 18.293L13.2929 19.7072L8.50001 14.9143ZM14.7071 1.29297L14 0.585861L13.2929 1.29297L9.29291 5.29297L10.7071 6.70718L14 3.41429L16.2929 5.70718L18.5858 8.00008L15.2929 11.293L16.7071 12.7072L20.7071 8.70718L21.4142 8.00008L20.7071 7.29297L17.7071 4.29297L14.7071 1.29297Z" fill="#FF0E65"/>
</svg>
