<svg width="20" height="14" viewBox="0 0 20 14" fill="none" xmlns="http://www.w3.org/2000/svg">
<path fill-rule="evenodd" clip-rule="evenodd" d="M10 6.57212L13.7138 10.3574L12.2862 11.758L11 10.4471V14H9V10.4471L7.71381 11.758L6.28619 10.3574L10 6.57212Z" fill="#EC3A7A"/>
<path fill-rule="evenodd" clip-rule="evenodd" d="M5.75736 1.75736C6.88258 0.632141 8.4087 -1.19209e-07 10 0C11.5913 5.96048e-08 13.1174 0.632141 14.2426 1.75736C15.1482 2.66295 15.7344 3.82822 15.9288 5.07815C16.8785 5.23934 17.7719 5.64687 18.4869 6.27255C19.436 7.10297 20 8.26016 20 9.5C20 10.7398 19.436 11.897 18.4869 12.7275C17.5421 13.5541 16.2862 14 15 14V12C15.8356 12 16.6144 11.7084 17.1699 11.2223C17.7212 10.74 18 10.1167 18 9.5C18 8.88333 17.7212 8.26004 17.1699 7.7777C16.6144 7.29164 15.8356 7 15 7H14V6C14 4.93914 13.5786 3.92172 12.8284 3.17157C12.0783 2.42143 11.0609 2 10 2C8.93913 2 7.92172 2.42143 7.17157 3.17157C6.42143 3.92172 6 4.93913 6 6V7H5C4.16443 7 3.38558 7.29164 2.83008 7.7777C2.27884 8.26004 2 8.88333 2 9.5C2 10.1167 2.27884 10.74 2.83008 11.2223C3.38558 11.7084 4.16443 12 5 12V14C3.71384 14 2.45785 13.5541 1.51307 12.7275C0.564017 11.897 0 10.7398 0 9.5C0 8.26016 0.564018 7.10297 1.51307 6.27255C2.22813 5.64687 3.12146 5.23933 4.07122 5.07814C4.26556 3.82822 4.85177 2.66295 5.75736 1.75736Z" fill="#EC3A7A"/>
</svg>
