<svg preserveAspectRatio="none" width="100%" height="100%" overflow="visible" style="display: block;" viewBox="0 0 21.8535 25" fill="none" xmlns="http://www.w3.org/2000/svg">
<g id="path" filter="url(#filter0_d_0_4)">
<mask id="path-1-outside-1_0_4" maskUnits="userSpaceOnUse" x="2.99984" y="2" width="16" height="19" fill="black">
<rect fill="white" x="2.99984" y="2" width="16" height="19"/>
<path fill-rule="evenodd" clip-rule="evenodd" d="M7.83539 13L6.94878 11.6453C6.34339 10.7203 5.05387 10.3829 4.06751 10.89L4.29734 10.7718C4.05256 10.8977 3.93518 11.2114 4.03597 11.4721L5.26324 14.6474C5.4578 15.1508 5.9547 15.8627 6.36645 16.2203C6.36645 16.2203 8.83539 18.2639 8.83539 19.03V20H12.8354L13.8354 18L14.8354 20H15.8354V19.03C15.8354 18.2639 17.3442 15.8507 17.3442 15.8507C17.622 15.3816 17.8535 14.5552 17.8535 14.0066V9.9718C17.8354 9.0785 17.0761 8.35454 16.1391 8.35454C15.6704 8.35454 15.2907 8.71652 15.2907 9.16341V9.48657C15.2907 8.59327 14.5314 7.86931 13.5944 7.86931C13.1257 7.86931 12.746 8.23129 12.746 8.67819V9.00135C12.746 8.10804 11.9867 7.38408 11.0497 7.38408C10.581 7.38408 10.2013 7.74606 10.2013 8.19296V8.51612C10.2013 8.37256 10.186 8.25843 10.1563 8.16799L9.89757 4.00121C9.86257 3.43776 9.38767 3 8.83539 3C8.27925 3 7.83539 3.44763 7.83539 3.99981V8V13ZM14.8535 12L15.8535 12V16H14.8535V12V12ZM12.8535 12L13.8535 12V16H12.8535V12V12ZM10.8535 12L11.8535 12V16H10.8535V12V12Z"/>
</mask>
<path fill-rule="evenodd" clip-rule="evenodd" d="M7.83539 13L6.94878 11.6453C6.34339 10.7203 5.05387 10.3829 4.06751 10.89L4.29734 10.7718C4.05256 10.8977 3.93518 11.2114 4.03597 11.4721L5.26324 14.6474C5.4578 15.1508 5.9547 15.8627 6.36645 16.2203C6.36645 16.2203 8.83539 18.2639 8.83539 19.03V20H12.8354L13.8354 18L14.8354 20H15.8354V19.03C15.8354 18.2639 17.3442 15.8507 17.3442 15.8507C17.622 15.3816 17.8535 14.5552 17.8535 14.0066V9.9718C17.8354 9.0785 17.0761 8.35454 16.1391 8.35454C15.6704 8.35454 15.2907 8.71652 15.2907 9.16341V9.48657C15.2907 8.59327 14.5314 7.86931 13.5944 7.86931C13.1257 7.86931 12.746 8.23129 12.746 8.67819V9.00135C12.746 8.10804 11.9867 7.38408 11.0497 7.38408C10.581 7.38408 10.2013 7.74606 10.2013 8.19296V8.51612C10.2013 8.37256 10.186 8.25843 10.1563 8.16799L9.89757 4.00121C9.86257 3.43776 9.38767 3 8.83539 3C8.27925 3 7.83539 3.44763 7.83539 3.99981V8V13ZM14.8535 12L15.8535 12V16H14.8535V12V12ZM12.8535 12L13.8535 12V16H12.8535V12V12ZM10.8535 12L11.8535 12V16H10.8535V12V12Z" fill="var(--fill-0, white)"/>
<path d="M7.83539 13L6.99866 13.5476L8.83539 16.354V13H7.83539ZM6.94878 11.6453L7.7855 11.0977V11.0977L6.94878 11.6453ZM4.03597 11.4721L3.10321 11.8327V11.8327L4.03597 11.4721ZM5.26324 14.6474L6.19599 14.2869V14.2869L5.26324 14.6474ZM6.36645 16.2203L5.71072 16.9753L5.71968 16.9831L5.72883 16.9907L6.36645 16.2203ZM8.83539 20H7.83539V21H8.83539V20ZM12.8354 20V21H13.4534L13.7298 20.4472L12.8354 20ZM13.8354 18L14.7298 17.5528L13.8354 15.7639L12.941 17.5528L13.8354 18ZM14.8354 20L13.941 20.4472L14.2174 21H14.8354V20ZM15.8354 20V21H16.8354V20H15.8354ZM17.3442 15.8507L18.1921 16.3808L18.1985 16.3706L18.2047 16.3602L17.3442 15.8507ZM17.8535 9.9718H18.8535V9.96168L18.8533 9.95156L17.8535 9.9718ZM10.1563 8.16799L9.15827 8.22998L9.16621 8.35779L9.20609 8.47948L10.1563 8.16799ZM9.89757 4.00121L8.89949 4.0632V4.0632L9.89757 4.00121ZM7.83539 3.99981H6.83539H7.83539ZM15.8535 12H16.8535V11H15.8535V12ZM15.8535 16V17H16.8535V16H15.8535ZM14.8535 16H13.8535V17H14.8535V16ZM13.8535 12H14.8535V11H13.8535V12ZM13.8535 16V17H14.8535V16H13.8535ZM12.8535 16H11.8535V17H12.8535V16ZM11.8535 12H12.8535V11H11.8535V12ZM11.8535 16V17H12.8535V16H11.8535ZM10.8535 16H9.85348V17H10.8535V16ZM7.83539 13L8.67211 12.4524L7.7855 11.0977L6.94878 11.6453L6.11205 12.193L6.99866 13.5476L7.83539 13ZM6.94878 11.6453L7.7855 11.0977C6.89791 9.74153 5.04876 9.2611 3.6103 10.0006L4.06751 10.89L4.52473 11.7793C5.05899 11.5047 5.78887 11.6992 6.11205 12.193L6.94878 11.6453ZM4.06751 10.89L4.52473 11.7793L4.75456 11.6612L4.29734 10.7718L3.84013 9.88245L3.6103 10.0006L4.06751 10.89ZM4.29734 10.7718L3.84013 9.88245C3.1309 10.2471 2.82205 11.1052 3.10321 11.8327L4.03597 11.4721L4.96872 11.1116C5.0143 11.2295 5.00436 11.3396 4.97386 11.4213C4.94344 11.5027 4.87631 11.5986 4.75456 11.6612L4.29734 10.7718ZM4.03597 11.4721L3.10321 11.8327L4.33049 15.0079L5.26324 14.6474L6.19599 14.2869L4.96872 11.1116L4.03597 11.4721ZM5.26324 14.6474L4.33049 15.0079C4.5832 15.6618 5.17451 16.5096 5.71072 16.9753L6.36645 16.2203L7.02218 15.4653C6.73489 15.2158 6.3324 14.6398 6.19599 14.2869L5.26324 14.6474ZM6.36645 16.2203C5.72883 16.9907 5.72877 16.9906 5.72872 16.9906C5.72872 16.9906 5.72867 16.9905 5.72867 16.9905C5.72865 16.9905 5.72867 16.9905 5.72872 16.9906C5.72883 16.9907 5.72909 16.9909 5.7295 16.9912C5.7303 16.9919 5.73169 16.993 5.73363 16.9947C5.73752 16.9979 5.74365 17.003 5.75186 17.0099C5.7683 17.0237 5.79306 17.0445 5.82495 17.0716C5.88878 17.1259 5.98091 17.205 6.09184 17.3025C6.31472 17.4985 6.60872 17.7648 6.89995 18.051C7.19559 18.3416 7.4675 18.6324 7.65854 18.8795C7.75456 19.0037 7.81287 19.0948 7.843 19.1524C7.88353 19.23 7.83539 19.1741 7.83539 19.03H8.83539H9.83539C9.83539 18.6944 9.71009 18.407 9.6156 18.2262C9.51071 18.0255 9.37613 17.8312 9.24069 17.6561C8.96881 17.3045 8.62348 16.9407 8.30189 16.6247C7.97588 16.3042 7.65265 16.0118 7.4126 15.8007C7.29207 15.6947 7.19131 15.6081 7.12013 15.5476C7.08451 15.5174 7.05622 15.4935 7.03649 15.477C7.02662 15.4687 7.01888 15.4623 7.01343 15.4577C7.01071 15.4555 7.00855 15.4537 7.00698 15.4524C7.0062 15.4517 7.00556 15.4512 7.00508 15.4508C7.00483 15.4506 7.00463 15.4504 7.00446 15.4503C7.00438 15.4502 7.00428 15.4501 7.00424 15.4501C7.00415 15.45 7.00407 15.45 6.36645 16.2203ZM8.83539 19.03H7.83539V20H8.83539H9.83539V19.03H8.83539ZM8.83539 20V21H12.8354V20V19H8.83539V20ZM12.8354 20L13.7298 20.4472L14.7298 18.4472L13.8354 18L12.941 17.5528L11.941 19.5528L12.8354 20ZM13.8354 18L12.941 18.4472L13.941 20.4472L14.8354 20L15.7298 19.5528L14.7298 17.5528L13.8354 18ZM14.8354 20V21H15.8354V20V19H14.8354V20ZM15.8354 20H16.8354V19.03H15.8354H14.8354V20H15.8354ZM15.8354 19.03H16.8354C16.8354 19.0658 16.8463 18.9439 16.992 18.6C17.1159 18.3073 17.288 17.9649 17.4699 17.6279C17.65 17.2941 17.8313 16.9809 17.9683 16.7503C18.0366 16.6354 18.0932 16.5418 18.1326 16.4775C18.1522 16.4453 18.1675 16.4206 18.1777 16.4041C18.1828 16.3959 18.1866 16.3897 18.189 16.3858C18.1902 16.3839 18.1911 16.3825 18.1916 16.3816C18.1919 16.3812 18.1921 16.3809 18.1922 16.3808C18.1922 16.3807 18.1922 16.3807 18.1922 16.3807C18.1922 16.3807 18.1922 16.3807 18.1922 16.3807C18.1922 16.3808 18.1921 16.3808 17.3442 15.8507C16.4963 15.3205 16.4963 15.3206 16.4962 15.3207C16.4962 15.3207 16.4962 15.3208 16.4961 15.3209C16.496 15.321 16.4959 15.3212 16.4958 15.3214C16.4955 15.3219 16.4951 15.3225 16.4946 15.3232C16.4937 15.3247 16.4924 15.3268 16.4908 15.3294C16.4875 15.3347 16.4829 15.3422 16.4769 15.3518C16.465 15.3711 16.4478 15.3989 16.4262 15.4342C16.383 15.5049 16.3218 15.6059 16.2486 15.7291C16.1027 15.9749 15.9068 16.3129 15.7098 16.6782C15.5144 17.0402 15.3093 17.4448 15.1503 17.82C15.0131 18.1441 14.8354 18.6111 14.8354 19.03H15.8354ZM17.3442 15.8507L18.2047 16.3602C18.4025 16.0261 18.5592 15.6131 18.6666 15.2258C18.7739 14.839 18.8535 14.4009 18.8535 14.0066H17.8535H16.8535C16.8535 14.161 16.8173 14.4103 16.7394 14.6912C16.6617 14.9714 16.5637 15.2061 16.4838 15.3412L17.3442 15.8507ZM17.8535 14.0066H18.8535V9.9718H17.8535H16.8535V14.0066H17.8535ZM17.8535 9.9718L18.8533 9.95156C18.8235 8.48181 17.5877 7.35454 16.1391 7.35454V8.35454V9.35454C16.5644 9.35454 16.8473 9.67519 16.8537 9.99205L17.8535 9.9718ZM16.1391 8.35454V7.35454C15.1636 7.35454 14.2907 8.11981 14.2907 9.16341H15.2907H16.2907C16.2907 9.23171 16.26 9.28577 16.2292 9.31516C16.1992 9.34373 16.1651 9.35454 16.1391 9.35454V8.35454ZM15.2907 9.16341H14.2907V9.48657H15.2907H16.2907V9.16341H15.2907ZM15.2907 9.48657H16.2907C16.2907 7.99657 15.0382 6.86931 13.5944 6.86931V7.86931V8.86931C14.0246 8.86931 14.2907 9.18998 14.2907 9.48657H15.2907ZM13.5944 7.86931V6.86931C12.6189 6.86931 11.746 7.63458 11.746 8.67819H12.746H13.746C13.746 8.74648 13.7153 8.80054 13.6845 8.82993C13.6545 8.8585 13.6205 8.86931 13.5944 8.86931V7.86931ZM12.746 8.67819H11.746V9.00135H12.746H13.746V8.67819H12.746ZM12.746 9.00135H13.746C13.746 7.51134 12.4935 6.38408 11.0497 6.38408V7.38408V8.38408C11.4799 8.38408 11.746 8.70475 11.746 9.00135H12.746ZM11.0497 7.38408V6.38408C10.0742 6.38408 9.20133 7.14936 9.20133 8.19296H10.2013H11.2013C11.2013 8.26126 11.1706 8.31532 11.1398 8.3447C11.1098 8.37328 11.0758 8.38408 11.0497 8.38408V7.38408ZM10.2013 8.19296H9.20133V8.51612H10.2013H11.2013V8.19296H10.2013ZM10.2013 8.51612H11.2013C11.2013 8.3088 11.1801 8.08088 11.1066 7.85651L10.1563 8.16799L9.20609 8.47948C9.19825 8.45553 9.19743 8.44436 9.19837 8.45156C9.1993 8.45874 9.20133 8.4791 9.20133 8.51612H10.2013ZM10.1563 8.16799L11.1544 8.10601L10.8956 3.93923L9.89757 4.00121L8.89949 4.0632L9.15827 8.22998L10.1563 8.16799ZM9.89757 4.00121L10.8956 3.93923C10.8277 2.84504 9.91233 2 8.83539 2V3V4C8.8442 4 8.86008 4.00346 8.87704 4.01933C8.89311 4.03438 8.89866 4.04976 8.89949 4.0632L9.89757 4.00121ZM8.83539 3V2C7.72464 2 6.83539 2.89768 6.83539 3.99981H7.83539H8.83539V4V3ZM7.83539 3.99981H6.83539V8H7.83539H8.83539V3.99981H7.83539ZM7.83539 8H6.83539V13H7.83539H8.83539V8H7.83539ZM14.8535 12V13H15.8535V12V11H14.8535V12ZM15.8535 12H14.8535V16H15.8535H16.8535V12H15.8535ZM15.8535 16V15H14.8535V16V17H15.8535V16ZM14.8535 16H15.8535V12H14.8535H13.8535V16H14.8535ZM12.8535 12V13H13.8535V12V11H12.8535V12ZM13.8535 12H12.8535V16H13.8535H14.8535V12H13.8535ZM13.8535 16V15H12.8535V16V17H13.8535V16ZM12.8535 16H13.8535V12H12.8535H11.8535V16H12.8535ZM10.8535 12V13H11.8535V12V11H10.8535V12ZM11.8535 12H10.8535V16H11.8535H12.8535V12H11.8535ZM11.8535 16V15H10.8535V16V17H11.8535V16ZM10.8535 16H11.8535V12H10.8535H9.85348V16H10.8535Z" fill="var(--stroke-0, black)" fill-opacity="0.8" mask="url(#path-1-outside-1_0_4)"/>
</g>
<defs>
<filter id="filter0_d_0_4" x="-1.19209e-07" y="0" width="21.8535" height="25" filterUnits="userSpaceOnUse" color-interpolation-filters="sRGB">
<feFlood flood-opacity="0" result="BackgroundImageFix"/>
<feColorMatrix in="SourceAlpha" type="matrix" values="0 0 0 0 0 0 0 0 0 0 0 0 0 0 0 0 0 0 127 0" result="hardAlpha"/>
<feOffset dy="1"/>
<feGaussianBlur stdDeviation="1.5"/>
<feColorMatrix type="matrix" values="0 0 0 0 0 0 0 0 0 0 0 0 0 0 0 0 0 0 0.2 0"/>
<feBlend mode="normal" in2="BackgroundImageFix" result="effect1_dropShadow_0_4"/>
<feBlend mode="normal" in="SourceGraphic" in2="effect1_dropShadow_0_4" result="shape"/>
</filter>
</defs>
</svg>
