<svg width="24" height="24" viewBox="0 0 24 24" fill="none" xmlns="http://www.w3.org/2000/svg">
<path d="M9.5 15.5V6.5H11.5V15.5C11.5 15.6733 11.5606 15.9559 11.7119 16.166C11.8266 16.3251 12.0263 16.5 12.5 16.5C12.9737 16.5 13.1734 16.3251 13.2881 16.166C13.4394 15.9559 13.5 15.6733 13.5 15.5V6.5C13.5 5.99336 13.34 5.21081 12.8887 4.58398C12.4741 4.00819 11.774 3.5 10.5 3.5C9.226 3.5 8.52594 4.00819 8.11133 4.58398C7.66001 5.21081 7.5 5.99336 7.5 6.5V15.5C7.5 16.34 7.7604 17.6225 8.51172 18.666C9.22635 19.6584 10.4261 20.5 12.5 20.5C14.5739 20.5 15.7737 19.6584 16.4883 18.666C17.2396 17.6225 17.5 16.34 17.5 15.5V6.5H19.5V15.5C19.5 16.66 19.1599 18.3775 18.1113 19.834C17.0259 21.3415 15.2259 22.5 12.5 22.5C9.77408 22.5 7.97407 21.3415 6.88867 19.834C5.84005 18.3775 5.5 16.66 5.5 15.5V6.5C5.5 5.67339 5.73977 4.45579 6.48828 3.41602C7.27368 2.32519 8.57408 1.5 10.5 1.5C12.4259 1.5 13.7263 2.32519 14.5117 3.41602C15.2602 4.45579 15.5 5.67339 15.5 6.5V15.5C15.5 15.9934 15.3598 16.7108 14.9111 17.334C14.4257 18.0081 13.6259 18.5 12.5 18.5C11.3741 18.5 10.5743 18.0081 10.0889 17.334C9.64019 16.7108 9.5 15.9934 9.5 15.5Z" fill="#EC3A7A"/>
</svg>
