<svg width="24" height="24" viewBox="0 0 24 24" fill="none" xmlns="http://www.w3.org/2000/svg">
<path fill-rule="evenodd" clip-rule="evenodd" d="M22 17L2 17L2 15L22 15V17Z" fill="#EC3A7A"/>
<path fill-rule="evenodd" clip-rule="evenodd" d="M4 12C4 7.58172 7.58172 4 12 4C16.4183 4 20 7.58172 20 12V15H18V12C18 8.68629 15.3137 6 12 6C8.68629 6 6 8.68629 6 12V15H4V12Z" fill="#EC3A7A"/>
<path fill-rule="evenodd" clip-rule="evenodd" d="M13 2V5H11V2H13Z" fill="#EC3A7A"/>
<path fill-rule="evenodd" clip-rule="evenodd" d="M15 19C15 20.6569 13.6569 22 12 22C10.3431 22 9 20.6569 9 19H11C11 19.5523 11.4477 20 12 20C12.5523 20 13 19.5523 13 19H15Z" fill="#EC3A7A"/>
</svg>
