<svg width="24" height="24" viewBox="0 0 24 24" fill="none" xmlns="http://www.w3.org/2000/svg">
<path fill-rule="evenodd" clip-rule="evenodd" d="M6 1H18V11H23V23H1V11H6V1ZM16 3V11H8V3H9V6L10.2425 6.97014L12 6.53078L13.7575 6.97014L15 6V3H16ZM13 3H11V4.71922L12 4.46922L13 4.71922V3ZM3 13H4V16L5.24254 16.9701L7 16.5308L8.75746 16.9701L10 16V13H11V21H3V13ZM6 14.7192V13H8V14.7192L7 14.4692L6 14.7192ZM13 21V13H14V16L15.2425 16.9701L17 16.5308L18.7575 16.9701L20 16V13H21V21H13ZM16 13V14.7192L17 14.4692L18 14.7192V13H16Z" fill="#EC3A7A"/>
</svg>
