<svg width="24" height="24" viewBox="0 0 24 24" fill="none" xmlns="http://www.w3.org/2000/svg">
<path fill-rule="evenodd" clip-rule="evenodd" d="M20 6H4V20H20V6ZM2 4V22H22V4H2Z" fill="#EC3A7A"/>
<path fill-rule="evenodd" clip-rule="evenodd" d="M8 2V6H6V2H8Z" fill="#EC3A7A"/>
<path fill-rule="evenodd" clip-rule="evenodd" d="M18 2V6H16V2H18Z" fill="#EC3A7A"/>
<path fill-rule="evenodd" clip-rule="evenodd" d="M8 18H6V16H8V18Z" fill="#EC3A7A"/>
<path fill-rule="evenodd" clip-rule="evenodd" d="M8 14H6V12H8V14Z" fill="#EC3A7A"/>
<path fill-rule="evenodd" clip-rule="evenodd" d="M8 10H6V8H8V10Z" fill="#EC3A7A"/>
<path fill-rule="evenodd" clip-rule="evenodd" d="M13 18H11V16H13V18Z" fill="#EC3A7A"/>
<path fill-rule="evenodd" clip-rule="evenodd" d="M13 14H11V12H13V14Z" fill="#EC3A7A"/>
<path fill-rule="evenodd" clip-rule="evenodd" d="M13 10H11V8H13V10Z" fill="#EC3A7A"/>
<path fill-rule="evenodd" clip-rule="evenodd" d="M18 18H16V16H18V18Z" fill="#EC3A7A"/>
<path fill-rule="evenodd" clip-rule="evenodd" d="M18 14H16V12H18V14Z" fill="#EC3A7A"/>
<path fill-rule="evenodd" clip-rule="evenodd" d="M18 10H16V8H18V10Z" fill="#EC3A7A"/>
</svg>
