<svg width="24" height="24" viewBox="0 0 24 24" fill="none" xmlns="http://www.w3.org/2000/svg">
<path fill-rule="evenodd" clip-rule="evenodd" d="M7.79289 13.2929L17.7929 3.29291L19.2071 4.70712L9.20711 14.7071L7.79289 13.2929Z" fill="#EC3A7A"/>
<path fill-rule="evenodd" clip-rule="evenodd" d="M16.2071 13.2929L6.20711 3.29291L4.79289 4.70712L14.7929 14.7071L16.2071 13.2929Z" fill="#EC3A7A"/>
<path fill-rule="evenodd" clip-rule="evenodd" d="M7 18C8.10457 18 9 17.1046 9 16C9 14.8954 8.10457 14 7 14C5.89543 14 5 14.8954 5 16C5 17.1046 5.89543 18 7 18ZM7 20C9.20914 20 11 18.2092 11 16C11 13.7909 9.20914 12 7 12C4.79086 12 3 13.7909 3 16C3 18.2092 4.79086 20 7 20Z" fill="#EC3A7A"/>
<path fill-rule="evenodd" clip-rule="evenodd" d="M17 18C15.8954 18 15 17.1046 15 16C15 14.8954 15.8954 14 17 14C18.1046 14 19 14.8954 19 16C19 17.1046 18.1046 18 17 18ZM17 20C14.7909 20 13 18.2092 13 16C13 13.7909 14.7909 12 17 12C19.2091 12 21 13.7909 21 16C21 18.2092 19.2091 20 17 20Z" fill="#EC3A7A"/>
</svg>
