<svg width="24" height="24" viewBox="0 0 24 24" fill="none" xmlns="http://www.w3.org/2000/svg">
<path fill-rule="evenodd" clip-rule="evenodd" d="M20.2928 2.29291L16.9102 5.67558C15.5846 4.96857 13.9609 4.50001 11.9999 4.50001C8.61076 4.50001 6.11398 6.33966 4.51515 8.07173C3.71071 8.94321 3.11036 9.811 2.71079 10.4603C2.5104 10.7859 2.3589 11.0592 2.25608 11.2542C2.20463 11.3517 2.16525 11.4298 2.13793 11.4853C2.12427 11.5131 2.11361 11.5352 2.10596 11.5513L2.09673 11.5708L2.0938 11.5771L2.09234 11.5802L1.93164 11.9284L2.04417 12.2941L2.04461 12.2955L2.04515 12.2973L2.04417 12.2941L2.05039 12.3139L2.06282 12.3519C2.07323 12.3833 2.08794 12.4263 2.1072 12.4799C2.14572 12.587 2.2026 12.7367 2.28002 12.92C2.4346 13.286 2.67261 13.7894 3.01218 14.3561C3.53359 15.2263 4.30659 16.266 5.40223 17.1835L2.29284 20.2929L3.70706 21.7071L7.08972 18.3245L8.58633 16.8279L17.1765 8.23763L18.5977 6.81652L21.7071 3.70712L20.9395 2.93933L20.2928 2.29291ZM11.9999 6.50001C13.3445 6.50001 14.4707 6.76312 15.4136 7.17217L14.0321 8.55361C12.4982 7.64764 10.4894 7.85363 9.17145 9.17158C7.85351 10.4895 7.64752 12.4984 8.55348 14.0323L6.82336 15.7624C5.87033 14.9989 5.19048 14.1003 4.72779 13.3281C4.44402 12.8545 4.24701 12.4368 4.12241 12.1418C4.11119 12.1153 4.10057 12.0897 4.09054 12.0653C4.1717 11.9164 4.27959 11.7271 4.41411 11.5085C4.76454 10.939 5.28919 10.1818 5.98475 9.42829C7.38592 7.91037 9.38914 6.50001 11.9999 6.50001ZM10.0678 12.518L12.5179 10.0679C11.8506 9.88969 11.1091 10.0623 10.5857 10.5858C10.0622 11.1093 9.88956 11.8507 10.0678 12.518Z" fill="#EC3A7A"/>
<path d="M18.5258 9.59564L19.9472 8.17422C20.004 8.24241 20.0593 8.31051 20.1131 8.37839C20.7806 9.21951 21.2361 10.0379 21.5257 10.6475C21.6709 10.9531 21.7756 11.2088 21.8453 11.3922C21.8802 11.4839 21.9064 11.5577 21.9245 11.6109C21.9505 11.6932 21.9612 11.7275 21.9278 11.6206L22.0462 12C22.0462 12 21.9315 12.3688 21.9215 12.398C21.9015 12.4563 21.8724 12.5375 21.8337 12.6383C21.7563 12.8396 21.6395 13.1202 21.4771 13.4536C21.1532 14.1184 20.6418 15.0055 19.8883 15.896C18.3684 17.6923 15.8573 19.5 11.9999 19.5C10.9041 19.5 9.91314 19.3537 9.02053 19.1009L10.7074 17.414C11.114 17.4698 11.5444 17.5 11.9999 17.5C15.1426 17.5 17.1315 16.0578 18.3616 14.6041C18.9831 13.8695 19.4092 13.1316 19.6791 12.5777C19.792 12.346 19.8765 12.1486 19.9358 12C19.8837 11.8696 19.8123 11.7016 19.7192 11.5057C19.4788 10.9997 19.0991 10.3181 18.5465 9.62164L18.5258 9.59564Z" fill="#EC3A7A"/>
</svg>
