<svg width="24" height="24" viewBox="0 0 24 24" fill="none" xmlns="http://www.w3.org/2000/svg">
<path fill-rule="evenodd" clip-rule="evenodd" d="M4.51515 8.07172C6.11398 6.33965 8.61076 4.5 11.9999 4.5C15.8573 4.5 18.3684 6.30774 19.8883 8.10406C20.6418 8.9945 21.1532 9.88163 21.4771 10.5464C21.6395 10.8798 21.7563 11.1604 21.8337 11.3617C21.8724 11.4625 21.9015 11.5437 21.9215 11.6021C21.9315 11.6313 21.9393 11.6548 21.945 11.6722L21.9519 11.6938L21.9542 11.701L21.9551 11.7038L21.9554 11.7049C21.9554 11.7049 21.9557 11.7059 20.9999 12C21.9557 12.2941 21.9554 12.2951 21.9554 12.2951L21.9551 12.2962L21.9542 12.299L21.9519 12.3062L21.945 12.3278C21.9393 12.3452 21.9315 12.3687 21.9215 12.3979C21.9015 12.4563 21.8724 12.5375 21.8337 12.6383C21.7563 12.8396 21.6395 13.1202 21.4771 13.4536C21.1532 14.1184 20.6418 15.0055 19.8883 15.8959C18.3684 17.6923 15.8573 19.5 11.9999 19.5C8.14256 19.5 5.63153 17.6923 4.11156 15.8959C3.35811 15.0055 2.8467 14.1184 2.52283 13.4536C2.36039 13.1202 2.24365 12.8396 2.16621 12.6383C2.12746 12.5375 2.09844 12.4563 2.07839 12.3979C2.06835 12.3687 2.06055 12.3452 2.05488 12.3278L2.04797 12.3062L2.04568 12.299L2.04483 12.2962L2.04448 12.2951C2.04448 12.2951 2.04417 12.2941 2.99995 12C2.09199 11.5809 2.09234 11.5802 2.09234 11.5802L2.0938 11.577L2.09673 11.5708L2.10596 11.5512C2.11361 11.5352 2.12427 11.5131 2.13793 11.4853C2.16525 11.4298 2.20463 11.3517 2.25608 11.2542C2.3589 11.0592 2.5104 10.7859 2.71079 10.4603C3.11036 9.81098 3.71071 8.9432 4.51515 8.07172ZM2.99995 12L2.09234 11.5802L1.93164 11.9284L2.04417 12.2941L2.99995 12ZM4.09054 12.0652C4.14765 12.2045 4.22374 12.3784 4.32081 12.5777C4.5907 13.1316 5.01678 13.8695 5.63834 14.6041C6.86837 16.0577 8.85734 17.5 11.9999 17.5C15.1426 17.5 17.1315 16.0577 18.3616 14.6041C18.9831 13.8695 19.4092 13.1316 19.6791 12.5777C19.792 12.346 19.8765 12.1486 19.9358 12C19.8765 11.8514 19.792 11.654 19.6791 11.4223C19.4092 10.8684 18.9831 10.1305 18.3616 9.39594C17.1315 7.94226 15.1426 6.5 11.9999 6.5C9.38914 6.5 7.38592 7.91035 5.98475 9.42828C5.28919 10.1818 4.76454 10.939 4.41411 11.5085C4.27959 11.7271 4.17171 11.9164 4.09054 12.0652ZM20.9999 12L21.9557 12.2941L22.0462 12L21.9557 11.7059L20.9999 12Z" fill="#EC3A7A"/>
<path fill-rule="evenodd" clip-rule="evenodd" d="M11.9999 10C10.8954 10 9.99995 10.8954 9.99995 12C9.99995 13.1046 10.8954 14 11.9999 14C13.1045 14 13.9999 13.1046 13.9999 12C13.9999 10.8954 13.1045 10 11.9999 10ZM7.99995 12C7.99995 9.79086 9.79081 8 11.9999 8C14.2091 8 15.9999 9.79086 15.9999 12C15.9999 14.2091 14.2091 16 11.9999 16C9.79081 16 7.99995 14.2091 7.99995 12Z" fill="#EC3A7A"/>
</svg>
