<svg width="24" height="24" viewBox="0 0 24 24" fill="none" xmlns="http://www.w3.org/2000/svg">
<path fill-rule="evenodd" clip-rule="evenodd" d="M17.3329 6.03667C16.6507 5.42612 15.863 4.93093 15.0006 4.58176C14.074 4.2066 13.0611 4 12 4C7.58172 4 4 7.58172 4 12C4 16.4183 7.58172 20 12 20C13.0611 20 14.074 19.7934 15.0006 19.4182C15.863 19.0691 16.6507 18.5739 17.3329 17.9633C16.4905 17.8702 15.7007 17.6026 15.0004 17.1975C13.2068 16.1602 12 14.221 12 12C12 9.77899 13.2068 7.83984 15.0004 6.80247C15.7007 6.39742 16.4905 6.12985 17.3329 6.03667ZM12.6674 6.03657C12.4483 6.0124 12.2257 6 12 6C8.68629 6 6 8.68629 6 12C6 15.3137 8.68629 18 12 18C12.2257 18 12.4483 17.9876 12.6674 17.9634C11.0302 16.4988 10 14.3702 10 12C10 9.62984 11.0302 7.5012 12.6674 6.03657Z" fill="#EC3A7A"/>
</svg>
