<svg width="24" height="24" viewBox="0 0 24 24" fill="none" xmlns="http://www.w3.org/2000/svg">
<path fill-rule="evenodd" clip-rule="evenodd" d="M3.62402 9.66664L8.68525 4.31299L10.1386 5.68695L7.32167 8.66664H15.5884C16.4955 8.66664 17.8243 8.94585 18.9516 9.80442C20.1264 10.6991 21.0002 12.1638 21.0002 14.3333C21.0002 16.5028 20.1264 17.9675 18.9516 18.8622C17.8243 19.7208 16.4955 20 15.5884 20H8.52957V18H15.5884C16.1519 18 17.0289 17.8125 17.7399 17.2711C18.4033 16.7658 19.0002 15.8971 19.0002 14.3333C19.0002 12.7695 18.4033 11.9008 17.7399 11.3955C17.0289 10.8541 16.1519 10.6666 15.5884 10.6666H7.32167L10.1386 13.6463L8.68525 15.0203L3.62402 9.66664Z" fill="#EC3A7A"/>
</svg>
