<svg width="24" height="24" viewBox="0 0 24 24" fill="none" xmlns="http://www.w3.org/2000/svg">
<path fill-rule="evenodd" clip-rule="evenodd" d="M10.5295 16.0589C13.5833 16.0589 16.0589 13.5833 16.0589 10.5295C16.0589 7.47562 13.5833 5 10.5295 5C7.47562 5 5 7.47562 5 10.5295C5 13.5833 7.47562 16.0589 10.5295 16.0589ZM18.0589 10.5295C18.0589 14.6879 14.6879 18.0589 10.5295 18.0589C6.37105 18.0589 3 14.6879 3 10.5295C3 6.37105 6.37105 3 10.5295 3C14.6879 3 18.0589 6.37105 18.0589 10.5295Z" fill="#EC3A7A"/>
<path fill-rule="evenodd" clip-rule="evenodd" d="M15.7058 14.2917L20.4142 19.0001L19 20.4143L14.2916 15.7059L15.7058 14.2917Z" fill="#EC3A7A"/>
</svg>
