<svg width="24" height="24" viewBox="0 0 24 24" fill="none" xmlns="http://www.w3.org/2000/svg">
<path fill-rule="evenodd" clip-rule="evenodd" d="M9.43033 21.58C9.47144 21.82 9.68728 22 9.94424 22H14.0556C14.3125 22 14.5284 21.82 14.5695 21.58L14.9498 18.93C14.9723 18.9213 14.9947 18.9125 15.017 18.9036C15.1519 18.8497 15.2827 18.7919 15.4103 18.7305C15.447 18.7129 15.4834 18.695 15.5195 18.6767C15.9264 18.4717 16.3006 18.2306 16.6648 17.966C16.6721 17.9607 16.6795 17.9554 16.6868 17.95L19.2461 18.95C19.4722 19.04 19.7497 18.95 19.8731 18.73L21.9287 15.27C22.0624 15.05 22.0007 14.78 21.8054 14.63L19.6367 13L19.7086 12L19.6367 11L21.8054 9.37C22.0007 9.22 22.0624 8.95 21.9287 8.73L19.8731 5.27C19.7497 5.05 19.4722 4.96 19.2461 5.05L16.6868 6.05C16.6824 6.04678 16.678 6.04357 16.6736 6.04035C16.3741 5.82246 16.0681 5.62035 15.7427 5.44103C15.5085 5.31191 15.2642 5.19461 15.0053 5.09175C14.9869 5.08442 14.9684 5.07718 14.9498 5.07L14.5695 2.42C14.5284 2.18 14.3125 2 14.0556 2H9.94424C9.68728 2 9.47144 2.18 9.43033 2.42L9.05003 5.07C9.03117 5.07728 9.01239 5.08464 8.99369 5.09207C8.88538 5.13511 8.77965 5.18068 8.67614 5.22858C8.62127 5.25397 8.56703 5.28002 8.51337 5.30669C8.09038 5.51693 7.70306 5.76615 7.32624 6.04035C7.32182 6.04356 7.31741 6.04678 7.313 6.05L4.7537 5.05C4.52758 4.96 4.25006 5.05 4.12672 5.27L2.07106 8.73C2.00816 8.83304 1.98598 8.95484 2.00868 9.07263C2.03138 9.19042 2.0974 9.29613 2.1944 9.37L4.36313 11L4.29118 12L4.36313 12.97L2.1944 14.63C2.0974 14.7039 2.03138 14.8096 2.00868 14.9274C1.98598 15.0452 2.00816 15.167 2.07106 15.27L4.12672 18.73C4.25006 18.95 4.52758 19.03 4.7537 18.95L7.313 17.94C7.32309 17.9476 7.3332 17.9551 7.34331 17.9626C7.64558 18.1872 7.95484 18.3925 8.28404 18.573C8.50334 18.6933 8.7315 18.8026 8.97234 18.8994C8.97609 18.9009 8.97984 18.9024 8.98359 18.9039C9.00563 18.9127 9.02778 18.9214 9.05003 18.93L9.43033 21.58ZM11.2188 20H12.7811L13.1613 17.39C13.3916 17.3429 13.6168 17.2821 13.8358 17.2083C13.9568 17.1677 14.0759 17.1231 14.1931 17.0747C14.2903 17.0346 14.3861 16.9919 14.4805 16.9467C14.517 16.9292 14.5533 16.9113 14.5893 16.8931C14.8956 16.7384 15.1855 16.5572 15.4558 16.3531C15.4928 16.3252 15.5294 16.2969 15.5656 16.2681C15.716 16.1487 15.86 16.022 15.9968 15.8887C16.086 15.8019 16.1721 15.7123 16.2551 15.62L18.7527 16.66L19.5236 15.36L17.3446 13.81C17.4549 13.4961 17.5356 13.1751 17.5867 12.8506C17.6278 12.5903 17.6497 12.3279 17.6526 12.0653C17.6529 12.0435 17.653 12.0218 17.653 12C17.6529 11.9787 17.6528 11.9574 17.6525 11.9362C17.6493 11.6793 17.6278 11.4225 17.5881 11.1678C17.537 10.8405 17.4559 10.5166 17.3446 10.2L19.5133 8.65L18.7425 7.35L16.2654 8.39C16.1796 8.29332 16.0905 8.19989 15.9983 8.10982C15.8737 7.98794 15.7435 7.87221 15.6082 7.76292C15.5585 7.7228 15.5081 7.68355 15.4571 7.64517C15.2299 7.47428 14.9897 7.32089 14.7387 7.18629C14.5465 7.08319 14.3479 6.9911 14.144 6.91061C14.1176 6.9002 14.0911 6.88998 14.0646 6.87996C13.7698 6.76869 13.4643 6.68147 13.1511 6.62L12.7708 4H11.229L10.8487 6.61C10.6034 6.65974 10.3637 6.72491 10.1309 6.80442C10.0214 6.84182 9.91338 6.8824 9.80705 6.92604C9.7266 6.95906 9.64709 6.99383 9.56859 7.0303C9.52489 7.05059 9.48151 7.07142 9.43845 7.09276C9.12127 7.24997 8.82146 7.43529 8.54278 7.64531C8.49339 7.68253 8.44466 7.72053 8.39662 7.75929C8.25919 7.87015 8.12737 7.9872 8.00164 8.11C7.9092 8.20029 7.82006 8.29368 7.73441 8.39L5.25734 7.35L4.48647 8.65L6.65519 10.2C6.54419 10.515 6.46316 10.8372 6.4121 11.1628C6.37204 11.4183 6.35042 11.6758 6.34725 11.9335C6.34697 11.9556 6.34684 11.9778 6.34684 12C6.34684 12.0215 6.34697 12.043 6.34722 12.0646C6.35027 12.3192 6.37133 12.5737 6.4104 12.8263C6.41228 12.8384 6.41421 12.8506 6.41618 12.8628C6.46743 13.1797 6.5471 13.4933 6.65519 13.8L4.47619 15.36L5.24706 16.66L7.74469 15.62C7.82767 15.7123 7.91382 15.8019 8.00297 15.8887C8.09028 15.9737 8.18046 16.056 8.27337 16.1355C8.36591 16.2146 8.46116 16.2909 8.55896 16.3641C8.78724 16.5351 9.02939 16.6895 9.28345 16.8253C9.44161 16.9098 9.60438 16.987 9.7713 17.0565C9.78351 17.0616 9.79574 17.0667 9.80799 17.0717C9.88318 17.1024 9.95921 17.1315 10.036 17.159C10.2951 17.2517 10.5631 17.326 10.8385 17.38L11.2188 20ZM11.2963 15.941C11.5271 15.98 11.7624 16 11.9999 16C12.2381 16 12.4741 15.9799 12.7056 15.9407C12.7515 15.9329 12.7973 15.9243 12.8429 15.915C13.6189 15.7568 14.3378 15.3822 14.907 14.8284C14.9614 14.7756 15.014 14.7214 15.065 14.6659C15.0751 14.6549 15.0852 14.6438 15.0953 14.6326C15.4424 14.2462 15.7076 13.801 15.8799 13.3228C15.8835 13.3128 15.8871 13.3028 15.8906 13.2927C16.0353 12.8804 16.1112 12.444 16.1112 12C16.1112 11.5618 16.0373 11.1309 15.8962 10.7233C15.8919 10.7109 15.8875 10.6985 15.8831 10.6861C15.7252 10.2443 15.488 9.83048 15.1802 9.46497C15.1534 9.43321 15.1261 9.40182 15.0983 9.37081C15.0898 9.36126 15.0812 9.35174 15.0725 9.34227C15.0192 9.28397 14.9641 9.22704 14.907 9.17157C14.3389 8.61881 13.6216 8.24454 12.8472 8.08585C12.8028 8.07676 12.7583 8.06838 12.7136 8.06071C12.4795 8.02057 12.2408 8 11.9999 8C11.7583 8 11.5189 8.02069 11.2842 8.06106C11.2441 8.06796 11.2041 8.07544 11.1643 8.08348C10.5169 8.21425 9.90899 8.49558 9.39432 8.90586C9.28981 8.98917 9.18914 9.0778 9.09276 9.17157C9.03575 9.22704 8.98059 9.28397 8.92731 9.34226C8.91838 9.35204 8.9095 9.36185 8.90068 9.3717C8.55294 9.7598 8.28777 10.2071 8.11625 10.6874C8.11198 10.6993 8.10777 10.7113 8.10362 10.7233C7.9625 11.1309 7.88858 11.5618 7.88858 12C7.88858 12.444 7.96445 12.8804 8.10921 13.2927C8.11154 13.2994 8.11389 13.306 8.11625 13.3126C8.2884 13.7947 8.55491 14.2435 8.90454 14.6326C8.91186 14.6408 8.91921 14.6489 8.9266 14.657C8.9801 14.7155 9.0355 14.7727 9.09276 14.8284C9.65848 15.3788 10.3721 15.7523 11.1427 15.9121C11.1937 15.9227 11.2449 15.9323 11.2963 15.941ZM13.4535 10.5858C13.068 10.2107 12.5451 10 11.9999 10C11.4547 10 10.9318 10.2107 10.5463 10.5858C10.4981 10.6327 10.4526 10.6816 10.4098 10.7325C10.1101 11.0884 9.94424 11.5359 9.94424 12C9.94424 12.5304 10.1608 13.0391 10.5463 13.4142C10.9318 13.7893 11.4547 14 11.9999 14C12.5451 14 13.068 13.7893 13.4535 13.4142C13.839 13.0391 14.0556 12.5304 14.0556 12C14.0556 11.4696 13.839 10.9609 13.4535 10.5858Z" fill="#EC3A7A"/>
</svg>
