<svg width="24" height="24" viewBox="0 0 24 24" fill="none" xmlns="http://www.w3.org/2000/svg">
<path fill-rule="evenodd" clip-rule="evenodd" d="M4 8V4H6V8H4ZM11 14.4V4H13V14.4H11ZM20 4V10.4H18V4H20ZM4 20V11.2H6V20H4ZM20 13.6V20H18V13.6H20ZM11 20V17.6H13V20H11Z" fill="#EC3A7A"/>
<path fill-rule="evenodd" clip-rule="evenodd" d="M5 10C5.55228 10 6 9.55228 6 9C6 8.44772 5.55228 8 5 8C4.44772 8 4 8.44772 4 9C4 9.55228 4.44772 10 5 10ZM5 12C6.65685 12 8 10.6569 8 9C8 7.34315 6.65685 6 5 6C3.34315 6 2 7.34315 2 9C2 10.6569 3.34315 12 5 12Z" fill="#EC3A7A"/>
<path fill-rule="evenodd" clip-rule="evenodd" d="M12 17C12.5523 17 13 16.5523 13 16C13 15.4477 12.5523 15 12 15C11.4477 15 11 15.4477 11 16C11 16.5523 11.4477 17 12 17ZM12 19C13.6569 19 15 17.6569 15 16C15 14.3431 13.6569 13 12 13C10.3431 13 9 14.3431 9 16C9 17.6569 10.3431 19 12 19Z" fill="#EC3A7A"/>
<path fill-rule="evenodd" clip-rule="evenodd" d="M19 13C19.5523 13 20 12.5523 20 12C20 11.4477 19.5523 11 19 11C18.4477 11 18 11.4477 18 12C18 12.5523 18.4477 13 19 13ZM19 15C20.6569 15 22 13.6569 22 12C22 10.3431 20.6569 9 19 9C17.3431 9 16 10.3431 16 12C16 13.6569 17.3431 15 19 15Z" fill="#EC3A7A"/>
</svg>
