<svg width="24" height="24" viewBox="0 0 24 24" fill="none" xmlns="http://www.w3.org/2000/svg">
<path fill-rule="evenodd" clip-rule="evenodd" d="M13 2V4H11V2H13ZM5.63604 7.05025L4.22183 5.63604L5.63604 4.22183L7.05025 5.63604L5.63604 7.05025ZM19.7782 5.63604L18.364 7.05025L16.9497 5.63604L18.364 4.22183L19.7782 5.63604ZM12 7C9.23858 7 7 9.23858 7 12C7 14.7614 9.23858 17 12 17C14.7614 17 17 14.7614 17 12C17 9.23858 14.7614 7 12 7ZM5 12C5 8.13401 8.13401 5 12 5C15.866 5 19 8.13401 19 12C19 15.866 15.866 19 12 19C8.13401 19 5 15.866 5 12ZM4 13H2V11H4V13ZM22 13H20V11H22V13ZM7.05025 18.364L5.63604 19.7782L4.22183 18.364L5.63604 16.9497L7.05025 18.364ZM18.364 19.7782L16.9497 18.364L18.364 16.9497L19.7782 18.364L18.364 19.7782ZM13 20V22H11V20H13Z" fill="#EC3A7A"/>
</svg>
