<svg width="24" height="24" viewBox="0 0 24 24" fill="none" xmlns="http://www.w3.org/2000/svg">
<path fill-rule="evenodd" clip-rule="evenodd" d="M18.0002 12.3333V11H20.0002V12.3333C20.0002 13.8618 19.522 15.3513 18.633 16.6131C17.7445 17.8742 16.4873 18.8494 15.0264 19.4233C13.5658 19.9971 11.9614 20.1465 10.414 19.8546C8.86641 19.5626 7.43803 18.8409 6.31201 17.773L7.68829 16.3218C8.52844 17.1186 9.60512 17.6667 10.7847 17.8892C11.9645 18.1118 13.1868 17.9972 14.2951 17.5618C15.4031 17.1265 16.3417 16.3927 16.998 15.4612C17.6538 14.5303 18.0002 13.4419 18.0002 12.3333Z" fill="#EC3A7A"/>
<path fill-rule="evenodd" clip-rule="evenodd" d="M19.0002 8.58578L22.4144 12H15.5859L19.0002 8.58578Z" fill="#EC3A7A"/>
<path fill-rule="evenodd" clip-rule="evenodd" d="M6.00015 11.6667L6.00015 13H4.00015V11.6667C4.00015 10.1382 4.47834 8.64874 5.36734 7.38692C6.25583 6.12583 7.51296 5.15063 8.9739 4.57671C10.4345 4.00293 12.0389 3.85352 13.5863 4.14543C15.1339 4.43737 16.5623 5.15914 17.6883 6.22705L16.312 7.67821C15.4719 6.88141 14.3952 6.3333 13.2156 6.11077C12.0358 5.88821 10.8135 6.00284 9.70518 6.43823C8.5972 6.87349 7.65863 7.60726 7.00231 8.53882C6.3465 9.46966 6.00015 10.5581 6.00015 11.6667Z" fill="#EC3A7A"/>
<path fill-rule="evenodd" clip-rule="evenodd" d="M5.00015 15.4142L1.58594 12L8.41436 12L5.00015 15.4142Z" fill="#EC3A7A"/>
</svg>
