<svg width="24" height="24" viewBox="0 0 24 24" fill="none" xmlns="http://www.w3.org/2000/svg">
<path d="M8 4C8 5.10457 7.10457 6 6 6C4.89543 6 4 5.10457 4 4C4 2.89543 4.89543 2 6 2C7.10457 2 8 2.89543 8 4Z" fill="#EC3A7A"/>
<path d="M8 15C8 16.1046 7.10457 17 6 17C4.89543 17 4 16.1046 4 15C4 13.8954 4.89543 13 6 13C7.10457 13 8 13.8954 8 15Z" fill="#EC3A7A"/>
<path d="M5 7H7V12H5V7Z" fill="#EC3A7A"/>
<path d="M5 18H7V22H5V18Z" fill="#EC3A7A"/>
<path d="M10 3H20V5H10V3Z" fill="#EC3A7A"/>
<path d="M10 7H16V9H10V7Z" fill="#EC3A7A"/>
<path d="M10 18H16V20H10V18Z" fill="#EC3A7A"/>
<path d="M10 14H20V16H10V14Z" fill="#EC3A7A"/>
</svg>
