<svg width="24" height="24" viewBox="0 0 24 24" fill="none" xmlns="http://www.w3.org/2000/svg">
<path fill-rule="evenodd" clip-rule="evenodd" d="M2.70718 1.29291L22.7072 21.2929L21.293 22.7071L1.29297 2.70712L2.70718 1.29291ZM9.50008 15.9142L2.70718 22.7071L1.29297 21.2929L8.08586 14.5L3.29297 9.70712L4.70718 8.29291L10.2072 13.7929L15.7072 19.2929L14.293 20.7071L9.50008 15.9142ZM15.7072 2.29291L15.0001 1.5858L14.293 2.29291L10.293 6.29291L11.7072 7.70712L15.0001 4.41423L17.293 6.70712L19.5859 9.00001L16.293 12.2929L17.7072 13.7071L21.7072 9.70712L22.4143 9.00001L21.7072 8.29291L18.7072 5.29291L15.7072 2.29291Z" fill="#EC3A7A"/>
</svg>
