<svg width="24" height="24" viewBox="0 0 24 24" fill="none" xmlns="http://www.w3.org/2000/svg">
<path fill-rule="evenodd" clip-rule="evenodd" d="M12 10.5721L15.7138 14.3574L14.2862 15.758L13 14.4471V18H11V14.4471L9.71381 15.758L8.28619 14.3574L12 10.5721Z" fill="#EC3A7A"/>
<path fill-rule="evenodd" clip-rule="evenodd" d="M7.75736 5.75736C8.88258 4.63214 10.4087 4 12 4C13.5913 4 15.1174 4.63214 16.2426 5.75736C17.1482 6.66295 17.7344 7.82822 17.9288 9.07815C18.8785 9.23934 19.7719 9.64687 20.4869 10.2726C21.436 11.103 22 12.2602 22 13.5C22 14.7398 21.436 15.897 20.4869 16.7275C19.5421 17.5541 18.2862 18 17 18V16C17.8356 16 18.6144 15.7084 19.1699 15.2223C19.7212 14.74 20 14.1167 20 13.5C20 12.8833 19.7212 12.26 19.1699 11.7777C18.6144 11.2916 17.8356 11 17 11H16V10C16 8.93914 15.5786 7.92172 14.8284 7.17157C14.0783 6.42143 13.0609 6 12 6C10.9391 6 9.92172 6.42143 9.17157 7.17157C8.42143 7.92172 8 8.93913 8 10V11H7C6.16443 11 5.38558 11.2916 4.83008 11.7777C4.27884 12.26 4 12.8833 4 13.5C4 14.1167 4.27884 14.74 4.83008 15.2223C5.38558 15.7084 6.16443 16 7 16V18C5.71384 18 4.45785 17.5541 3.51307 16.7275C2.56402 15.897 2 14.7398 2 13.5C2 12.2602 2.56402 11.103 3.51307 10.2725C4.22813 9.64687 5.12146 9.23933 6.07122 9.07814C6.26556 7.82822 6.85177 6.66295 7.75736 5.75736Z" fill="#EC3A7A"/>
</svg>
