<svg width="24" height="24" viewBox="0 0 24 24" fill="none" xmlns="http://www.w3.org/2000/svg">
<path fill-rule="evenodd" clip-rule="evenodd" d="M12 10C13.6569 10 15 8.65685 15 7C15 5.34315 13.6569 4 12 4C10.3431 4 9 5.34315 9 7C9 8.65685 10.3431 10 12 10ZM12 12C14.7614 12 17 9.76142 17 7C17 4.23858 14.7614 2 12 2C9.23858 2 7 4.23858 7 7C7 9.76142 9.23858 12 12 12Z" fill="#EC3A7A"/>
<path fill-rule="evenodd" clip-rule="evenodd" d="M6.94315 17.5574C5.68486 18.5011 5 19.7285 5 21H3C3 18.9578 4.10601 17.1852 5.74315 15.9574C7.37998 14.7297 9.59541 14 12 14C14.4046 14 16.62 14.7297 18.2569 15.9574C19.894 17.1852 21 18.9578 21 21H19C19 19.7285 18.3151 18.5011 17.0569 17.5574C15.7983 16.6134 14.0137 16 12 16C9.98631 16 8.20174 16.6134 6.94315 17.5574Z" fill="#EC3A7A"/>
</svg>
